<?xml version="1.0" standalone="no"?>
<!DOCTYPE svg PUBLIC "-//W3C//DTD SVG 20010904//EN"
 "http://www.w3.org/TR/2001/REC-SVG-20010904/DTD/svg10.dtd">
<svg version="1.0" xmlns="http://www.w3.org/2000/svg"
 width="512.000000pt" height="512.000000pt" viewBox="0 0 512.000000 512.000000"
 preserveAspectRatio="xMidYMid meet">

<g transform="translate(0.000000,512.000000) scale(0.100000,-0.100000)"
fill="#000000" stroke="none">
<path d="M2330 5110 c-890 -86 -1671 -622 -2060 -1415 -161 -327 -236 -606
-262 -973 -24 -335 30 -719 147 -1038 54 -147 184 -404 271 -534 611 -915
1716 -1339 2775 -1066 185 47 304 92 494 186 505 249 905 649 1155 1155 160
324 236 605 262 972 46 635 -165 1287 -577 1788 -163 198 -396 404 -611 540
-112 71 -360 193 -485 239 -139 51 -348 104 -501 127 -154 23 -464 32 -608 19z
m-104 -1029 c28 -13 88 -70 200 -192 l159 -174 670 -5 c609 -5 673 -7 701 -22
47 -26 95 -77 118 -128 21 -45 21 -50 21 -1200 l0 -1155 -27 -51 c-31 -60 -88
-110 -138 -124 -22 -6 -536 -10 -1373 -10 -1112 0 -1343 2 -1371 14 -50 21
-104 74 -134 130 l-27 51 0 1350 0 1350 24 45 c38 74 79 109 151 131 14 4 241
8 505 8 446 1 483 -1 521 -18z"/>
<path d="M1190 4008 c-32 -16 -52 -36 -70 -68 l-25 -45 -3 -457 c-2 -273 1
-458 6 -458 5 0 16 7 23 17 8 9 29 22 47 30 l32 13 0 245 0 245 1375 0 1375 0
0 -53 c0 -52 1 -54 41 -81 l42 -27 -5 70 c-7 91 -40 151 -101 180 -43 21 -54
21 -708 21 l-664 1 -165 182 c-91 100 -176 187 -190 194 -19 10 -137 13 -495
13 -468 0 -471 0 -515 -22z"/>
<path d="M1270 3430 l0 -30 789 0 c765 0 790 1 832 20 42 19 67 20 517 20 308
0 472 3 472 10 0 7 -442 10 -1305 10 l-1305 0 0 -30z"/>
<path d="M2915 3352 c-16 -10 -102 -98 -190 -195 l-159 -176 -676 -3 -675 -3
-35 -22 c-20 -12 -47 -41 -60 -65 l-25 -43 -3 -784 c-3 -885 -5 -859 68 -925
22 -19 50 -38 62 -41 13 -3 625 -4 1360 -3 l1337 3 28 21 c15 11 39 41 53 65
l25 44 0 1005 0 1005 -25 44 c-14 25 -41 54 -60 65 -34 20 -52 21 -515 24
-453 2 -482 1 -510 -16z m-366 -1019 c41 -105 191 -507 191 -514 0 -6 -37 -9
-87 -7 l-86 3 -15 43 -14 42 -97 0 -97 0 -12 -45 -12 -45 -85 0 c-47 0 -85 4
-85 9 0 7 155 422 195 524 6 14 21 17 100 17 92 0 93 0 104 -27z m421 -248 l0
-276 -82 3 -83 3 -3 273 -2 272 85 0 85 0 0 -275z"/>
<path d="M2416 2129 c-14 -48 -26 -92 -26 -98 0 -7 22 -11 55 -11 30 0 55 3
55 8 0 4 -13 48 -29 97 l-28 90 -27 -86z"/>
<path d="M1270 3190 l0 -140 633 0 632 1 110 121 c61 67 116 130 123 140 13
17 -13 18 -742 18 l-756 0 0 -140z"/>
</g>
</svg>
